<svg width="32" height="32" viewBox="0 0 32 32" fill="none" xmlns="http://www.w3.org/2000/svg">
<path d="M2 2H7.21832L9.07729 20.4829C9.15455 20.9924 9.41336 21.4568 9.80603 21.7906C10.1987 22.1244 10.6987 22.3049 11.214 22.2991H24.6756C25.1416 22.3235 25.6027 22.1946 25.9884 21.9322C26.3743 21.6699 26.6636 21.2884 26.8123 20.8462L29.6542 12.2991C29.7602 11.9778 29.7884 11.6359 29.7363 11.3016C29.6843 10.9672 29.5536 10.65 29.3551 10.3761C29.1482 10.0848 28.8715 9.85002 28.5506 9.69323C28.2296 9.53645 27.8743 9.46267 27.5175 9.47863H7.96618" stroke="black" stroke-width="2.85714" stroke-linecap="round" stroke-linejoin="round"/>
<path d="M24.3125 29.7779C23.7226 29.7779 23.2441 29.2994 23.2441 28.7095C23.2441 28.1195 23.7226 27.6411 24.3125 27.6411C24.9025 27.6411 25.3809 28.1195 25.3809 28.7095C25.3809 29.2994 24.9025 29.7779 24.3125 29.7779Z" stroke="black" stroke-width="2.85714" stroke-linecap="round" stroke-linejoin="round"/>
<path d="M10.4238 29.7779C9.83378 29.7779 9.35547 29.2994 9.35547 28.7095C9.35547 28.1195 9.83378 27.6411 10.4238 27.6411C11.0139 27.6411 11.4922 28.1195 11.4922 28.7095C11.4922 29.2994 11.0139 29.7779 10.4238 29.7779Z" stroke="black" stroke-width="2.85714" stroke-linecap="round" stroke-linejoin="round"/>
</svg>
